<svg xmlns="http://www.w3.org/2000/svg" viewBox="0 0 64 64">
  <title>Pawton Manufacturing paw and gear</title>
  <g fill="#0f766e">
    <circle cx="32" cy="32" r="25"/>
    <path d="M26 1h12l2 10H24zM26 63h12l2-10H24zM1 26v12l10 2V24zM63 26v12l-10 2V24zM6 14l8-8 9 6-11 11zM58 50l-8 8-9-6 11-11zM50 6l8 8-6 9-11-11zM14 58l-8-8 6-9 11 11z"/>
  </g>
  <circle cx="32" cy="32" r="20" fill="#f8fafc"/>
  <g fill="#0f766e">
    <ellipse cx="20" cy="28" rx="4" ry="5.5" transform="rotate(-25 20 28)"/>
    <ellipse cx="27.5" cy="21" rx="4" ry="5.5" transform="rotate(-10 27.5 21)"/>
    <ellipse cx="36.5" cy="21" rx="4" ry="5.5" transform="rotate(10 36.5 21)"/>
    <ellipse cx="44" cy="28" rx="4" ry="5.5" transform="rotate(25 44 28)"/>
    <path d="M32 29c-4 0-6 4-9 7-3 3-4 7-1 10 3 3 7-1 10-1s7 4 10 1c3-3 2-7-1-10-3-3-5-7-9-7z"/>
  </g>
</svg>